<svg width="32" height="32" viewBox="0 0 32 32" fill="none" xmlns="http://www.w3.org/2000/svg">
  <rect width="32" height="32" rx="4" fill="#dc2626"/>
  <path d="M16 7c-1.473 0-2.667 1.194-2.667 2.667v0.666c-2.946 0-5.333 2.388-5.333 5.334v8c0 1.473-1.194 2.666-2.667 2.666h21.334c-1.473 0-2.667-1.193-2.667-2.666v-8c0-2.946-2.387-5.334-5.333-5.334v-0.666c0-1.473-1.194-2.667-2.667-2.667zm0 1.334c0.736 0 1.333 0.597 1.333 1.333v0.666h-2.666v-0.666c0-0.736 0.597-1.333 1.333-1.333zm-4 4h8c2.209 0 4 1.791 4 4v8c0 0.736 0.597 1.333 1.333 1.333h-18.666c0.736 0 1.333-0.597 1.333-1.333v-8c0-2.209 1.791-4 4-4z" fill="white"/>
  <circle cx="16" cy="19.33" r="1.33" fill="white"/>
</svg>
